<svg width="21" height="19" viewBox="0 0 21 19" fill="none" xmlns="http://www.w3.org/2000/svg">
<path d="M20.0001 3.36361L20.1501 3.36354V3.36346V3.36329L20.1501 3.3629L20.1501 3.36194L20.1501 3.3593L20.1499 3.35125C20.1497 3.34474 20.1492 3.3359 20.1484 3.32526C20.1468 3.30419 20.1436 3.27499 20.137 3.24215C20.125 3.18221 20.0972 3.08488 20.0244 3.01209L20.0204 3.00806C19.9371 2.92478 19.817 2.80451 19.5911 2.80451H4.16949L3.78607 0.810794C3.77867 0.665295 3.67453 0.550674 3.5833 0.482257C3.4844 0.408094 3.35124 0.35 3.22738 0.35L0.772858 0.35C0.772851 0.35 0.772843 0.35 0.772835 0.35C0.616033 0.349981 0.473707 0.402905 0.370205 0.506407C0.2667 0.609912 0.21377 0.75225 0.21377 0.909065C0.21377 1.06588 0.266701 1.20822 0.37021 1.31173C0.473719 1.41524 0.616056 1.46817 0.772873 1.46817H2.77679L4.71636 11.3276C4.71641 11.3279 4.71645 11.3281 4.71649 11.3283C4.97592 12.7101 6.26668 13.7409 7.6456 13.7409H17.0547C17.2115 13.7409 17.3538 13.688 17.4573 13.5845C17.5609 13.481 17.6138 13.3386 17.6138 13.1818C17.6138 13.025 17.5609 12.8826 17.4573 12.7791C17.3538 12.6756 17.2115 12.6227 17.0547 12.6227H7.72741C7.19718 12.6227 6.67326 12.3913 6.35076 11.9885L18.0479 10.3862C18.174 10.3826 18.2876 10.3201 18.3676 10.2401C18.4456 10.1621 18.507 10.052 18.5132 9.92965L20.1457 3.39999L20.1501 3.38208V3.36361H20.0001ZM18.8282 3.84087L17.5056 9.36456L5.80153 10.8877L4.39217 3.84087H18.8282Z" fill="#553280" stroke="#553280" stroke-width="0.3"/>
<path d="M7.31815 14.2592C6.08987 14.2592 5.12271 15.2263 5.12271 16.4546C5.12271 17.6829 6.08988 18.6501 7.31815 18.6501C8.54646 18.6501 9.51359 17.6829 9.51359 16.4546C9.51363 15.2263 8.54645 14.2592 7.31815 14.2592ZM7.31815 17.5319C6.74643 17.5319 6.24087 17.0263 6.24087 16.4546C6.24087 15.8829 6.74643 15.3773 7.31815 15.3773C7.88986 15.3773 8.39542 15.8829 8.39542 16.4546C8.39542 17.0263 7.88986 17.5319 7.31815 17.5319Z" fill="#553280" stroke="#553280" stroke-width="0.3"/>
<path d="M15.5003 14.2592C14.272 14.2592 13.3048 15.2264 13.3048 16.4546C13.3048 17.6829 14.272 18.6501 15.5003 18.6501C16.7286 18.6501 17.6957 17.6829 17.6957 16.4546C17.6957 15.2263 16.7285 14.2592 15.5003 14.2592ZM15.5003 17.5319C14.9286 17.5319 14.423 17.0263 14.423 16.4546C14.423 15.8829 14.9286 15.3773 15.5003 15.3773C16.072 15.3773 16.5775 15.8829 16.5775 16.4546C16.5775 17.0263 16.072 17.5319 15.5003 17.5319Z" fill="#553280" stroke="#553280" stroke-width="0.3"/>
</svg>
