<svg width="23" height="23" viewBox="0 0 23 23" fill="none" xmlns="http://www.w3.org/2000/svg">
<g clip-path="url(#clip0_0:206)">
<path d="M23 12.7635C23 12.0028 22.5837 11.3173 21.9135 10.9746C21.2301 10.6251 20.3453 10.4479 19.2835 10.4479H7.74197C7.65887 10.0332 7.47473 9.65639 7.19851 9.34935L5.56178 7.52988C5.15676 7.07963 4.57475 6.80623 3.92303 6.76014L3.62901 6.73935C3.47848 6.72852 3.32552 6.74977 3.17872 6.799V5.83718C3.17872 5.50027 3.03681 5.19601 2.80995 4.98043C3.04 4.7047 3.17872 4.35018 3.17872 3.96385C3.17872 3.08747 2.46572 2.37451 1.58938 2.37451C0.713045 2.37451 0 3.08751 0 3.96389C0 4.35027 0.138719 4.70474 0.368764 4.98047C0.141908 5.1961 0 5.50031 0 5.83722V20.1759C0 20.4239 0.201115 20.6251 0.449219 20.6251H1.9997C2.2314 20.6251 2.42511 20.4489 2.44694 20.2182C2.50044 19.6525 2.79958 18.0989 3.5407 17.4022H4.74357C4.99167 17.4022 5.19279 17.201 5.19279 16.953C5.19279 16.7049 4.99167 16.5037 4.74357 16.5037L0.898393 16.5037V12.549L6.89438 12.5488V13.7194C6.89438 14.412 7.45784 14.9755 8.15049 14.9755H8.15058H21.7439C21.8645 14.9755 21.9859 14.958 22.1015 14.9237V16.5037H19.6261C19.6257 16.5037 19.6253 16.5038 19.6249 16.5038H8.69625C8.44814 16.5038 8.24703 16.7049 8.24703 16.953C8.24703 17.2011 8.44814 17.4022 8.69625 17.4022H19.4593C20.1975 18.097 20.4986 19.652 20.5531 20.2182C20.5749 20.4489 20.7686 20.6251 21.0003 20.6251H22.5508C22.7989 20.6251 23 20.424 23 20.1759V12.7635ZM3.1798 8.26781C3.18649 8.0764 3.16025 7.87861 3.31797 7.73787C3.47664 7.59628 3.66697 7.64268 3.8596 7.65634C4.28402 7.68639 4.64164 7.8504 4.89379 8.13076L6.53052 9.95027C6.79583 10.2451 6.92309 10.6562 6.88881 11.1075C6.87565 11.2813 6.8788 11.4353 6.73235 11.5579C6.59853 11.6699 6.4533 11.649 6.29221 11.6442C5.83975 11.6307 5.44449 11.4608 5.17918 11.1659L3.54245 9.34639C3.27772 9.05201 3.16614 8.65863 3.1798 8.26781ZM0.898438 11.6505V5.83722C0.898438 5.68063 1.02584 5.55323 1.18243 5.55323H1.99619C2.15279 5.55323 2.28019 5.68063 2.28019 5.83722V11.6504H0.898438V11.6505ZM3.17867 10.2853L4.40675 11.6505H3.17867V10.2853ZM1.58934 3.27299C1.97027 3.27299 2.28023 3.58291 2.28023 3.96389C2.28023 4.34487 1.97032 4.65479 1.58934 4.65479C1.20835 4.65479 0.898438 4.34487 0.898438 3.96389C0.898438 3.58291 1.20835 3.27299 1.58934 3.27299ZM1.60829 19.7267H0.898438V17.4023H2.40476C1.91861 18.1981 1.69877 19.1825 1.60829 19.7267ZM8.15054 14.0772C7.95337 14.0772 7.79296 13.9167 7.79296 13.7196L7.79278 11.3464H19.2835C20.2016 11.3464 20.9489 11.4904 21.5045 11.7745C21.8728 11.9628 22.1016 12.3418 22.1016 12.7635V13.7179C22.1016 13.7185 22.1015 13.719 22.1015 13.7196C22.1015 13.9168 21.9411 14.0772 21.7439 14.0772H8.15054V14.0772ZM21.3918 19.7267C21.3012 19.1825 21.0814 18.1981 20.5953 17.4023H22.1016V19.7267H21.3918Z" fill="#553280"/>
<path d="M7.13503 16.7813C7.04209 16.5548 6.77386 16.4452 6.54835 16.5384C6.32203 16.6318 6.21166 16.8989 6.30532 17.125C6.39894 17.3511 6.66591 17.4617 6.892 17.3681C7.11765 17.2746 7.22896 17.007 7.13503 16.7813Z" fill="#553280"/>
</g>
<defs>
<clipPath id="clip0_0:206">
<rect width="23" height="23" fill="white"/>
</clipPath>
</defs>
</svg>
