<svg width="15" height="15" viewBox="0 0 15 15" fill="none" xmlns="http://www.w3.org/2000/svg">
<g clip-path="url(#clip0_0:744)">
<path d="M13.4216 3.94684C13.111 4.09714 12.981 4.47098 13.1313 4.78149C13.5419 5.62973 13.75 6.54404 13.75 7.5C13.75 10.9462 10.9462 13.75 7.5 13.75C4.0538 13.75 1.25 10.9462 1.25 7.5C1.25 4.0538 4.0538 1.25 7.5 1.25C8.92807 1.25 10.2696 1.71631 11.38 2.59842C11.6493 2.81342 12.0432 2.7684 12.2581 2.49817C12.4731 2.22809 12.4281 1.83472 12.1577 1.62003C10.8432 0.575256 9.189 0 7.5 0C3.36472 0 0 3.36472 0 7.5C0 11.6353 3.36472 15 7.5 15C11.6353 15 15 11.6353 15 7.5C15 6.35406 14.7498 5.25589 14.2563 4.23721C14.1063 3.92593 13.7312 3.79623 13.4216 3.94684Z" fill="#553280"/>
<path d="M7.49996 2.5C7.15496 2.5 6.87496 2.78 6.87496 3.125V7.5C6.87496 7.845 7.15496 8.125 7.49996 8.125H10.625C10.97 8.125 11.25 7.845 11.25 7.5C11.25 7.155 10.97 6.875 10.625 6.875H8.12496V3.125C8.12496 2.78 7.84496 2.5 7.49996 2.5Z" fill="#553280"/>
</g>
<defs>
<clipPath id="clip0_0:744">
<rect width="15" height="15" fill="white"/>
</clipPath>
</defs>
</svg>
