<svg width="23" height="22" viewBox="0 0 23 22" fill="none" xmlns="http://www.w3.org/2000/svg">
<g clip-path="url(#clip0_0:191)">
<path d="M20.5721 11.7759C20.5721 11.0653 19.9677 10.4871 19.2248 10.4871H11.9492V8.59431C11.9492 7.74304 11.2251 7.05047 10.3352 7.05047H9.79344V4.04338C9.79344 3.80616 9.59233 3.61379 9.34433 3.61379H8.98504V2.57751H9.25451C9.50251 2.57751 9.70362 2.38514 9.70362 2.14792V0.429584C9.70362 0.192368 9.50251 0 9.25451 0H6.55984C5.91595 0 5.39215 0.501024 5.39215 1.11692V3.61379H5.03287C4.78487 3.61379 4.58375 3.80616 4.58375 4.04338V7.05047H4.04204C3.15208 7.05047 2.42802 7.74304 2.42802 8.59431V12.5921C2.42802 12.8293 2.62914 13.0217 2.87713 13.0217C3.12513 13.0217 3.32624 12.8293 3.32624 12.5921V8.59431C3.32624 8.21679 3.64736 7.90964 4.04204 7.90964H10.3351C10.7298 7.90964 11.0509 8.21679 11.0509 8.59431V10.4871H9.52393C8.78101 10.4871 8.1766 11.0653 8.1766 11.7759V13.8379C8.1766 14.1677 8.30693 14.4689 8.52079 14.6971C8.30697 14.9253 8.1766 15.2264 8.1766 15.5562V20.7112C8.1766 20.8619 8.20399 21.0064 8.25384 21.1408H4.67353C3.93061 21.1408 3.3262 20.5627 3.3262 19.8521V16.4584C3.3262 16.2211 3.12509 16.0288 2.87709 16.0288C2.62909 16.0288 2.42798 16.2211 2.42798 16.4584V19.8521C2.42798 21.0364 3.43533 22 4.67353 22H19.2247C19.9676 22 20.5721 21.4219 20.5721 20.7112V15.5562C20.5721 15.2264 20.4417 14.9253 20.2279 14.6971C20.4417 14.4689 20.5721 14.1677 20.5721 13.8379V11.7759H20.5721ZM6.29038 1.11692C6.29038 0.97477 6.41123 0.859169 6.55984 0.859169H8.8054V1.71834H8.53593C8.28793 1.71834 8.08682 1.91071 8.08682 2.14792V3.61379H6.29038V1.11692ZM5.48198 7.05047V4.47296H8.89522V7.05047H5.48198ZM9.07486 11.7759C9.07486 11.539 9.27633 11.3463 9.52397 11.3463H19.2248C19.4724 11.3463 19.6739 11.539 19.6739 11.7759V13.8379C19.6739 14.0748 19.4724 14.2675 19.2248 14.2675H9.52397C9.27633 14.2675 9.07486 14.0748 9.07486 13.8379V11.7759ZM19.6739 20.7112C19.6739 20.9481 19.4724 21.1408 19.2248 21.1408H9.52397C9.27633 21.1408 9.07486 20.9481 9.07486 20.7112V15.5562C9.07486 15.3194 9.27633 15.1267 9.52397 15.1267H19.2248C19.4724 15.1267 19.6739 15.3194 19.6739 15.5562V20.7112Z" fill="#553280"/>
<path d="M17.2486 17.7041H11.5C11.252 17.7041 11.0508 17.8965 11.0508 18.1337C11.0508 18.3709 11.252 18.5633 11.5 18.5633H17.2486C17.4966 18.5633 17.6977 18.3709 17.6977 18.1337C17.6977 17.8965 17.4966 17.7041 17.2486 17.7041Z" fill="#553280"/>
<path d="M2.87709 14.9546C2.9952 14.9546 3.11108 14.9087 3.19456 14.8288C3.2781 14.7489 3.3262 14.638 3.3262 14.525C3.3262 14.4121 3.27814 14.3012 3.19456 14.2214C3.11108 14.1415 2.9952 14.0955 2.87709 14.0955C2.75897 14.0955 2.6431 14.1414 2.55957 14.2214C2.47603 14.3012 2.42798 14.4121 2.42798 14.525C2.42798 14.638 2.47599 14.7489 2.55957 14.8288C2.64315 14.9087 2.75897 14.9546 2.87709 14.9546Z" fill="#553280"/>
</g>
<defs>
<clipPath id="clip0_0:191">
<rect width="23" height="22" fill="white"/>
</clipPath>
</defs>
</svg>
