<svg width="26" height="26" viewBox="0 0 26 26" fill="none" xmlns="http://www.w3.org/2000/svg">
<path d="M21.6667 0H4.33333C1.9401 0 0 1.9401 0 4.33333V21.6667C0 24.0599 1.9401 26 4.33333 26H21.6667C24.0599 26 26 24.0599 26 21.6667V4.33333C26 1.9401 24.0599 0 21.6667 0Z" fill="#553280"/>
<path fill-rule="evenodd" clip-rule="evenodd" d="M17.5529 25.9897V15.9251H20.6714L21.1383 12.0027H17.5529V9.49845C17.5529 8.36282 17.844 7.58896 19.3473 7.58896L21.2646 7.58798V4.07983C20.9329 4.03212 19.7948 3.92529 18.4708 3.92529C15.7065 3.92529 13.8141 5.75318 13.8141 9.1101V12.0027H10.6877V15.9251H13.8141V25.9897H17.5529Z" fill="#FEFEFE"/>
</svg>
