<svg width="22" height="22" viewBox="0 0 22 22" fill="none" xmlns="http://www.w3.org/2000/svg">
<g clip-path="url(#clip0_0:197)">
<path d="M20.5135 8.66433C21.4721 7.70592 22 6.43151 22 5.07589C22 3.72035 21.4721 2.44594 20.5135 1.48744C19.5551 0.528934 18.2807 0.000976562 16.9252 0.000976562C15.5696 0.000976562 14.2952 0.528934 13.3368 1.48744C12.3109 2.51327 11.8849 3.64829 11.4339 4.84983C11.2963 5.21652 11.1573 5.58648 10.9992 5.96134C8.44039 3.97232 5.93046 2.79743 4.20814 2.79743C3.44695 2.79743 2.84251 3.01588 2.41175 3.44673C1.50086 4.35762 1.55444 6.06606 2.56248 8.25755C2.82322 8.82413 3.14016 9.40907 3.50659 10.0032C2.89657 10.3066 2.34227 10.7057 1.85414 11.1938C0.658496 12.3895 0 13.9794 0 15.6703C0 17.3613 0.658496 18.951 1.85414 20.1467C3.04984 21.3424 4.63964 22.0009 6.33059 22.0009C8.02162 22.0009 9.61134 21.3423 10.807 20.1467C11.2949 19.6589 11.6933 19.1054 11.9965 18.4965C13.7934 19.6063 15.4682 20.2387 16.7571 20.2387C16.7573 20.2387 16.7574 20.2387 16.7576 20.2387C17.519 20.2386 18.1234 20.02 18.5543 19.5893C19.3273 18.8163 19.4125 17.4893 18.8004 15.7521C18.2985 14.3274 17.3259 12.657 16.0396 11.0019C16.4146 10.8438 16.7845 10.7048 17.1512 10.5672C18.3528 10.1161 19.4877 9.69017 20.5135 8.66433ZM10.1588 19.4984C9.13627 20.5211 7.77674 21.0842 6.33059 21.0842C4.88452 21.0842 3.5249 20.5211 2.50237 19.4984C1.47984 18.4759 0.916738 17.1164 0.916738 15.6703C0.916738 14.2242 1.47989 12.8646 2.50246 11.842C2.94491 11.3996 3.45082 11.0429 4.00933 10.7783C4.18142 11.0314 4.36171 11.2855 4.54988 11.5398C4.02823 11.7641 3.55734 12.0832 3.15051 12.4901C1.39704 14.2437 1.39704 17.097 3.15055 18.8506C4.02729 19.7272 5.17898 20.1655 6.33067 20.1655C7.48236 20.1655 8.63414 19.7272 9.51096 18.8505C9.91783 18.4434 10.2361 17.9723 10.4598 17.452C10.715 17.6409 10.9693 17.8215 11.2219 17.9934C10.9575 18.5511 10.6011 19.0562 10.1588 19.4984ZM4.93681 12.3707C4.99714 12.3454 5.06907 12.3242 5.13949 12.3064C5.78819 13.1177 6.51144 13.9252 7.2936 14.7074C8.08345 15.4972 8.89286 16.2213 9.69998 16.8669C9.67704 16.9355 9.65753 16.9934 9.64984 17.016C9.47036 17.4601 9.20545 17.8592 8.86252 18.2024C8.16441 18.9003 7.24762 19.2493 6.33059 19.2493C5.41372 19.2492 4.49659 18.9002 3.79865 18.2024C2.4026 16.8063 2.4026 14.5345 3.79865 13.1384C4.1296 12.8074 4.51266 12.549 4.93681 12.3707ZM17.9358 16.0568C18.4154 17.418 18.4048 18.4423 17.9061 18.941C17.6534 19.1938 17.267 19.3219 16.7575 19.322C16.7574 19.322 16.7573 19.322 16.7572 19.322C15.5454 19.322 13.8725 18.6339 12.0749 17.459C12.0553 17.4439 12.0346 17.4302 12.0124 17.4182C10.6764 16.5381 9.27386 15.3912 7.94187 14.0592C7.12228 13.2396 6.37068 12.3932 5.70629 11.5465C5.69439 11.5285 5.68094 11.5119 5.66672 11.4959C5.27175 10.9898 4.90811 10.4839 4.58 9.98378C4.56891 9.96358 4.55628 9.94459 4.5427 9.92658C4.0862 9.22551 3.69974 8.53629 3.39539 7.87448C2.57138 6.08333 2.44922 4.70584 3.06006 4.09504C3.31272 3.8423 3.69897 3.71421 4.20827 3.71421C5.74651 3.71421 8.17442 4.89555 10.6018 6.8144C10.175 7.64151 9.66243 8.36832 9.01841 9.05999C8.99589 9.08414 8.97252 9.10846 8.94957 9.13261C8.92594 9.15757 8.90269 9.18258 8.87868 9.20737C8.83077 9.25704 8.78191 9.30676 8.73207 9.35669C8.64952 9.43915 8.60393 9.54708 8.59839 9.65764C8.59401 9.74367 8.61377 9.83132 8.65915 9.90991C8.94291 10.4016 9.29173 10.8827 9.68524 11.334C10.3822 12.1335 11.2204 12.8393 12.0913 13.3421C12.1082 13.3518 12.1256 13.36 12.1433 13.3674C12.1452 13.3682 12.1469 13.369 12.1488 13.3698C12.1666 13.377 12.1846 13.3831 12.2029 13.388C12.2033 13.3881 12.2037 13.3881 12.204 13.3882C12.2226 13.3931 12.2414 13.3968 12.2604 13.3993C12.2609 13.3994 12.2615 13.3994 12.2621 13.3995C12.2809 13.402 12.2998 13.4031 12.3186 13.4031C12.3192 13.4032 12.3198 13.4033 12.3203 13.4033C12.3214 13.4033 12.3225 13.4031 12.3236 13.4031C12.3362 13.403 12.3488 13.4024 12.3613 13.4013C12.3633 13.4011 12.3653 13.4009 12.3673 13.4006C12.3806 13.3993 12.3939 13.3974 12.4071 13.3949C12.4078 13.3948 12.4085 13.3947 12.4092 13.3945C12.4379 13.3888 12.4661 13.3805 12.4934 13.3694C12.494 13.3691 12.4947 13.3687 12.4954 13.3685C12.5076 13.3634 12.5197 13.3577 12.5315 13.3515C12.5339 13.3504 12.5362 13.349 12.5385 13.3478C12.5489 13.3423 12.559 13.3362 12.5689 13.3298C12.5715 13.3282 12.5739 13.3266 12.5764 13.3249C12.5867 13.318 12.5966 13.3106 12.6063 13.3029C12.608 13.3016 12.6097 13.3004 12.6113 13.299C12.6228 13.2896 12.6339 13.2798 12.6445 13.2692C13.4262 12.4875 14.2412 11.8873 15.1868 11.3994C16.478 13.032 17.4491 14.6755 17.9358 16.0568ZM13.4383 11.393C13.4318 11.3977 13.4253 11.4024 13.4188 11.4071C13.3729 11.44 13.327 11.4735 13.2809 11.5077C13.2639 11.5203 13.2468 11.5331 13.2298 11.5459C13.195 11.572 13.1603 11.5984 13.1254 11.6253C13.1026 11.643 13.0797 11.6606 13.057 11.6784C13.0283 11.7008 12.9996 11.7237 12.9708 11.7467C12.9444 11.7678 12.9179 11.7889 12.8916 11.8104C12.8667 11.8307 12.8417 11.8516 12.8167 11.8723C12.7877 11.8963 12.7588 11.9202 12.73 11.9446C12.7068 11.9641 12.6836 11.9844 12.6604 12.0043C12.6306 12.03 12.6007 12.0554 12.5711 12.0815C12.5446 12.1048 12.518 12.1289 12.4915 12.1526C12.4656 12.1759 12.4395 12.1987 12.4137 12.2222C12.3611 12.2701 12.3084 12.319 12.2555 12.3688C11.7238 12.0281 11.2121 11.6068 10.7509 11.1375C10.3985 10.7791 10.0761 10.3925 9.79726 9.99147C9.74063 9.91 9.68511 9.8281 9.63218 9.74556C9.72263 9.64987 9.81028 9.55344 9.89609 9.45629C9.90266 9.44894 9.90941 9.44151 9.9159 9.43421C9.95075 9.39463 9.98478 9.35493 10.0189 9.31505C10.03 9.30199 10.0415 9.28893 10.0525 9.27587C10.0827 9.24033 10.1123 9.20449 10.1418 9.1687C10.1566 9.15078 10.1716 9.13291 10.1862 9.11499C10.2121 9.08341 10.2375 9.05153 10.2628 9.01973C10.2813 8.99653 10.2998 8.97345 10.3179 8.95025C10.3392 8.92313 10.3603 8.89581 10.3813 8.86852C10.4044 8.83853 10.4271 8.80862 10.4496 8.77872C10.4656 8.75749 10.4814 8.73626 10.4972 8.71504C10.5275 8.67409 10.5573 8.63323 10.5866 8.59249C10.5946 8.58132 10.6028 8.5701 10.6107 8.55893C11.4754 7.34713 11.9027 6.20966 12.2922 5.17188C12.7254 4.01782 13.0994 3.02116 13.9851 2.13562C14.7704 1.3502 15.8145 0.917586 16.9252 0.917586C18.0359 0.917586 19.0801 1.3502 19.8654 2.13553C20.6508 2.92092 21.0833 3.96514 21.0833 5.07571C21.0833 6.18641 20.6507 7.23064 19.8653 8.01589C18.9798 8.90144 17.9831 9.27556 16.8291 9.70869C15.7902 10.0988 14.6514 10.5265 13.4383 11.393Z" fill="#553280"/>
<path d="M18.5398 2.26361C17.2738 1.53498 15.6671 1.74858 14.6325 2.78319C14.5842 2.83152 14.5368 2.88141 14.4914 2.93143C14.3212 3.11881 14.3352 3.40868 14.5226 3.57888C14.6104 3.65863 14.7206 3.69795 14.8306 3.69795C14.9554 3.69795 15.0796 3.64729 15.17 3.54773C15.2058 3.50828 15.2433 3.46892 15.2811 3.43107C16.023 2.68925 17.175 2.53594 18.0827 3.0581C18.3021 3.18451 18.5823 3.10884 18.7086 2.8894C18.8348 2.66996 18.7592 2.38985 18.5398 2.26361Z" fill="#553280"/>
<path d="M14.3467 3.90736C14.1243 3.78632 13.846 3.86877 13.7252 4.09118C13.7212 4.09831 13.717 4.10678 13.7144 4.11202C13.6012 4.33842 13.693 4.61377 13.9194 4.72694C13.9853 4.7599 14.0552 4.7755 14.1241 4.7755C14.2922 4.7755 14.454 4.68269 14.5344 4.52198C14.5348 4.52117 14.5356 4.51953 14.5364 4.51786C14.6487 4.29734 14.5655 4.02621 14.3467 3.90736Z" fill="#553280"/>
<path d="M13.6101 16.2564C13.3928 16.1265 13.1113 16.1973 12.9814 16.4145C12.8516 16.6318 12.9223 16.9133 13.1395 17.0431C13.4337 17.2191 13.7278 17.3828 14.0133 17.5297C14.2412 17.6471 14.8344 17.9252 15.4491 18.1383C15.4988 18.1554 15.5495 18.1637 15.5993 18.1637C15.7891 18.1637 15.9667 18.0448 16.0323 17.8553C16.1152 17.6161 15.9885 17.3549 15.7493 17.2721C15.1833 17.0758 14.6407 16.8217 14.4327 16.7145C14.1644 16.5765 13.8876 16.4224 13.6101 16.2564Z" fill="#553280"/>
<path d="M16.873 18.4099C16.8939 18.4099 16.915 18.4085 16.9362 18.4056C16.9567 18.4027 16.9774 18.3992 16.9971 18.3954C17.2455 18.3468 17.4075 18.1061 17.359 17.8577C17.3105 17.6093 17.0698 17.447 16.8214 17.4957C16.818 17.4963 16.8146 17.4969 16.8111 17.4975C16.5603 17.5321 16.3851 17.7633 16.4196 18.0142C16.4512 18.2437 16.6477 18.4099 16.873 18.4099Z" fill="#553280"/>
</g>
<defs>
<clipPath id="clip0_0:197">
<rect width="22" height="22" fill="white"/>
</clipPath>
</defs>
</svg>
