<svg width="22" height="22" viewBox="0 0 22 22" fill="none" xmlns="http://www.w3.org/2000/svg">
<g clip-path="url(#clip0_0:147)">
<path d="M21.5703 8.87314H18.0469V7.96362C18.0469 7.72631 17.8545 7.53394 17.6172 7.53394H8.33594C8.09866 7.53394 7.90625 7.72631 7.90625 7.96362C7.90625 8.20094 8.09866 8.39331 8.33594 8.39331H17.1875V11.6876C17.1875 14.5814 15.6425 17.271 13.1477 18.7344H4.89921C2.4044 17.271 0.859375 14.5814 0.859375 11.6876V8.39335H3.73828C3.97555 8.39335 4.16797 8.20098 4.16797 7.96367C4.16797 7.72635 3.97555 7.53398 3.73828 7.53398H0.429688C0.192414 7.53398 0 7.72635 0 7.96367V11.6876C0 13.3118 0.436562 14.9044 1.26251 16.2931C1.81951 17.2297 2.54225 18.0568 3.3886 18.7345H0.429688C0.192414 18.7345 0 18.9268 0 19.1642C0 20.7279 1.27218 22.0001 2.83594 22.0001H16.2422C17.806 22.0001 19.0781 20.7279 19.0781 19.1642C19.0781 18.9268 18.8857 18.7345 18.6484 18.7345H14.6583C15.4373 18.1107 16.1111 17.3602 16.6478 16.5144H17.8607C20.1431 16.5144 22 14.6575 22 12.3751V9.30283C22 9.06551 21.8076 8.87314 21.5703 8.87314ZM18.1717 19.5938C17.975 20.4778 17.1845 21.1407 16.2422 21.1407H2.83594C1.89359 21.1407 1.10318 20.4778 0.906426 19.5938H4.7841H13.2628H18.1717ZM18.0469 11.6876V11.4513H19.4219V12.3751C19.4219 13.2359 18.7215 13.9363 17.8607 13.9363H17.7631C17.9507 13.2056 18.0469 12.4501 18.0469 11.6876ZM21.1406 12.3751C21.1406 14.1837 19.6692 15.655 17.8607 15.655H17.1294C17.2666 15.3748 17.3891 15.088 17.4962 14.7957H17.8607C19.1954 14.7957 20.2812 13.7098 20.2812 12.3751V11.0216C20.2812 10.7843 20.0888 10.5919 19.8516 10.5919H18.0469V9.73252H21.1406V12.3751Z" fill="#553280"/>
<path d="M9.43387 2.37803L9.21031 2.09732C8.88211 1.68533 8.88164 1.10942 9.20915 0.696839C9.3567 0.510956 9.32559 0.240682 9.13971 0.0931707C8.95378 -0.0544269 8.68355 -0.0232746 8.536 0.162608C7.95841 0.890327 7.95927 1.90607 8.5381 2.63275L8.76167 2.91347C9.19054 3.45187 9.19118 4.20446 8.76322 4.74368L8.53411 5.03234C8.38655 5.21823 8.41766 5.4885 8.60355 5.63601C8.68256 5.6987 8.77679 5.72917 8.87038 5.72917C8.99697 5.72917 9.12239 5.67348 9.20726 5.56657L9.43636 5.27791C10.1144 4.4236 10.1134 3.23114 9.43387 2.37803Z" fill="#553280"/>
<path d="M11.8155 3.3441L11.5919 3.06343C11.2637 2.6514 11.2632 2.07549 11.5908 1.6629C11.7383 1.47702 11.7072 1.20675 11.5213 1.05924C11.3354 0.911638 11.0652 0.94279 10.9176 1.12867C10.34 1.85639 10.3409 2.87213 10.9197 3.59886L11.1433 3.87958C11.5721 4.41802 11.5728 5.17066 11.1448 5.70983L10.9157 5.99845C10.7682 6.18433 10.7993 6.45461 10.9852 6.60212C11.0642 6.66481 11.1584 6.69523 11.252 6.69523C11.3786 6.69523 11.504 6.6395 11.5889 6.53264L11.8179 6.24402C12.496 5.38975 12.495 4.19729 11.8155 3.3441Z" fill="#553280"/>
<path d="M7.05208 3.3441L6.82852 3.06342C6.50032 2.65144 6.49985 2.07549 6.82731 1.6629C6.97487 1.47702 6.94376 1.20674 6.75788 1.05919C6.57195 0.911636 6.30172 0.942831 6.15417 1.12863C5.57662 1.85635 5.57748 2.87213 6.15631 3.59881L6.37988 3.87953C6.80871 4.41797 6.80935 5.17061 6.38143 5.70974L6.15232 5.99836C6.00476 6.18424 6.03583 6.45452 6.22171 6.60207C6.30073 6.66476 6.39492 6.69523 6.48855 6.69523C6.61513 6.69523 6.74056 6.63954 6.82538 6.53268L7.05453 6.24401C7.73258 5.38975 7.73159 4.19728 7.05208 3.3441Z" fill="#553280"/>
<path d="M6.4573 7.65959C6.37738 7.57967 6.26652 7.53369 6.15351 7.53369C6.04051 7.53369 5.92965 7.57967 5.84973 7.65959C5.76985 7.73994 5.72383 7.85037 5.72383 7.96338C5.72383 8.07639 5.7698 8.18725 5.84973 8.2676C5.92965 8.34752 6.04051 8.39307 6.15351 8.39307C6.26652 8.39307 6.37738 8.34752 6.4573 8.2676C6.53761 8.18725 6.5832 8.07682 6.5832 7.96338C6.5832 7.85037 6.53761 7.73951 6.4573 7.65959Z" fill="#553280"/>
<path d="M15.5547 11.2578C15.3174 11.2578 15.125 11.4502 15.125 11.6875C15.125 13.2825 14.4781 14.8499 13.35 15.9879C13.183 16.1565 13.1842 16.4285 13.3527 16.5956C13.4365 16.6787 13.5459 16.7201 13.6552 16.7201C13.7658 16.7201 13.8764 16.6776 13.9605 16.5929C15.2467 15.2952 15.9844 13.5073 15.9844 11.6875C15.9844 11.4502 15.792 11.2578 15.5547 11.2578Z" fill="#553280"/>
<path d="M12.6277 17.1542C12.5111 16.9475 12.249 16.8745 12.0424 16.9911L12.0326 16.9966C11.8258 17.1132 11.7528 17.3753 11.8694 17.582C11.9484 17.722 12.094 17.8006 12.244 17.8006C12.3155 17.8006 12.3881 17.7827 12.4548 17.7451L12.4646 17.7396C12.6713 17.623 12.7443 17.3609 12.6277 17.1542Z" fill="#553280"/>
</g>
<defs>
<clipPath id="clip0_0:147">
<rect width="22" height="22" fill="white"/>
</clipPath>
</defs>
</svg>
