<svg width="21" height="21" viewBox="0 0 21 21" fill="none" xmlns="http://www.w3.org/2000/svg">
<g clip-path="url(#clip0_0:211)">
<path d="M20.5899 20.1799H18.7852V16.9397C18.7852 16.7131 18.6016 16.5295 18.3751 16.5295C18.1486 16.5295 17.9649 16.7131 17.9649 16.9397V20.1799H13.0431V12.3869C13.0431 12.1604 12.8594 11.9768 12.6329 11.9768H8.3673C8.14081 11.9768 7.95714 12.1604 7.95714 12.3869V20.1799H3.03529V10.9103H3.19312C3.30189 10.9103 3.40619 10.8671 3.48314 10.7902L10.5001 3.77325L17.5171 10.7902C17.594 10.8671 17.6983 10.9103 17.8071 10.9103H17.9649V13.9865C17.9649 14.213 18.1486 14.3967 18.3751 14.3967C18.6016 14.3967 18.7852 14.213 18.7852 13.9865V10.9103H20.5899C20.7558 10.9103 20.9054 10.8104 20.9688 10.6572C21.0323 10.5039 20.9972 10.3275 20.8799 10.2102L10.7901 0.120368C10.6299 -0.0397972 10.3703 -0.0397972 10.21 0.120368L6.35459 3.97582C6.19442 4.13599 6.19442 4.3957 6.35459 4.55586C6.51479 4.71607 6.77451 4.71607 6.93467 4.55586L10.5001 0.990429L19.5997 10.09H17.977L10.7901 2.90319C10.6299 2.74302 10.3703 2.74302 10.21 2.90319L3.02319 10.09H1.40049L4.6378 6.85277C4.79797 6.6926 4.79797 6.43289 4.6378 6.27269C4.47764 6.11256 4.21793 6.11252 4.05772 6.27269L0.120238 10.2102C0.00297478 10.3275 -0.0321755 10.5039 0.0313165 10.6572C0.0948084 10.8104 0.244392 10.9103 0.410299 10.9103H2.21498V20.1798H0.410299C0.183812 20.1798 0.000144712 20.3635 0.000144712 20.59C0.000144712 20.8165 0.183812 21.0002 0.410299 21.0002H2.62513H8.3673H12.6329H18.3751H20.5899C20.8164 21.0002 21.0001 20.8165 21.0001 20.59C21.0001 20.3635 20.8164 20.1799 20.5899 20.1799ZM12.2228 20.1799H8.77745V12.7971H12.2228V20.1799Z" fill="#553280"/>
<path d="M16.6523 11.9766H14.3554C14.1289 11.9766 13.9453 12.1602 13.9453 12.3867V16.4883C13.9453 16.7148 14.1289 16.8984 14.3554 16.8984H16.6523C16.8788 16.8984 17.0625 16.7148 17.0625 16.4883V12.3867C17.0625 12.1602 16.8788 11.9766 16.6523 11.9766ZM16.2421 16.0781H14.7656V12.7969H16.2421V16.0781Z" fill="#553280"/>
<path d="M6.64464 11.9766H4.34778C4.12129 11.9766 3.93762 12.1602 3.93762 12.3867V16.4883C3.93762 16.7148 4.12129 16.8984 4.34778 16.8984H6.64464C6.87113 16.8984 7.0548 16.7148 7.0548 16.4883V12.3867C7.0548 12.1602 6.87113 11.9766 6.64464 11.9766ZM6.23449 16.0781H4.75793V12.7969H6.23449V16.0781Z" fill="#553280"/>
<path d="M10.5001 6.73975C9.45974 6.73975 8.61334 7.58614 8.61334 8.62646C8.61334 9.66678 9.45974 10.5132 10.5001 10.5132C11.5404 10.5132 12.3868 9.66678 12.3868 8.62646C12.3868 7.58614 11.5404 6.73975 10.5001 6.73975ZM10.5001 9.69286C9.91202 9.69286 9.43365 9.21446 9.43365 8.62646C9.43365 8.03846 9.91202 7.56006 10.5001 7.56006C11.0881 7.56006 11.5665 8.03846 11.5665 8.62646C11.5665 9.21446 11.0881 9.69286 10.5001 9.69286Z" fill="#553280"/>
<path d="M10.0107 16.1983C9.93442 16.122 9.82856 16.0781 9.72073 16.0781C9.61286 16.0781 9.50704 16.122 9.43075 16.1983C9.35446 16.2746 9.31058 16.3804 9.31058 16.4883C9.31058 16.5962 9.35442 16.702 9.43075 16.7783C9.50708 16.8545 9.61286 16.8984 9.72073 16.8984C9.8286 16.8984 9.93442 16.8545 10.0107 16.7783C10.087 16.702 10.1309 16.5962 10.1309 16.4883C10.1309 16.3804 10.087 16.2746 10.0107 16.1983Z" fill="#553280"/>
<path d="M5.7451 5.1651C5.66886 5.08881 5.56304 5.04492 5.45517 5.04492C5.3473 5.04492 5.24148 5.08881 5.16519 5.1651C5.0889 5.24139 5.04501 5.34721 5.04501 5.45508C5.04501 5.56295 5.08886 5.66877 5.16519 5.74506C5.24152 5.82134 5.3473 5.86523 5.45517 5.86523C5.56304 5.86523 5.66886 5.82134 5.7451 5.74506C5.82139 5.66877 5.86532 5.56295 5.86532 5.45508C5.86532 5.34721 5.82143 5.24139 5.7451 5.1651Z" fill="#553280"/>
<path d="M18.6649 15.0633C18.5886 14.987 18.4828 14.9431 18.3749 14.9431C18.2671 14.9431 18.1612 14.987 18.085 15.0633C18.0087 15.14 17.9648 15.2454 17.9648 15.3533C17.9648 15.4611 18.0086 15.567 18.085 15.6437C18.1612 15.72 18.2671 15.7634 18.3749 15.7634C18.4828 15.7634 18.5886 15.72 18.6649 15.6437C18.7412 15.567 18.7851 15.4616 18.7851 15.3533C18.7851 15.2454 18.7412 15.1396 18.6649 15.0633Z" fill="#553280"/>
</g>
<defs>
<clipPath id="clip0_0:211">
<rect width="21" height="21" fill="white"/>
</clipPath>
</defs>
</svg>
