<svg width="16" height="18" viewBox="0 0 16 18" fill="none" xmlns="http://www.w3.org/2000/svg">
<path fill-rule="evenodd" clip-rule="evenodd" d="M8 0.333496C5.827 0.333496 5.555 0.344329 4.702 0.385496C3.85 0.428829 3.269 0.573996 2.76 0.788496C2.234 1.01058 1.788 1.30633 1.343 1.78841C0.898 2.26941 0.625 2.75258 0.42 3.3235C0.222 3.876 0.0869999 4.50433 0.0479999 5.42516C0.00799986 6.3525 0 6.64716 0 9.00016C0 11.3532 0.00999986 11.6489 0.0479999 12.5752C0.0879999 13.496 0.222 14.1243 0.42 14.6768C0.625 15.2467 0.898 15.7309 1.343 16.2119C1.788 16.694 2.233 16.9897 2.76 17.2118C3.27 17.4263 3.85 17.5726 4.702 17.6148C5.555 17.6582 5.827 17.6668 8 17.6668C10.173 17.6668 10.445 17.656 11.298 17.6148C12.15 17.5715 12.731 17.4263 13.24 17.2118C13.766 16.9897 14.212 16.694 14.657 16.2119C15.102 15.7309 15.375 15.2477 15.58 14.6768C15.778 14.1243 15.913 13.496 15.952 12.5752C15.992 11.6489 16 11.3542 16 9.00016C16 6.64608 15.99 6.35141 15.952 5.42516C15.912 4.50433 15.778 3.876 15.58 3.3235C15.375 2.75366 15.102 2.26941 14.657 1.78841C14.212 1.30633 13.767 1.01058 13.24 0.788496C12.73 0.573996 12.15 0.427746 11.298 0.385496C10.445 0.342163 10.173 0.333496 8 0.333496ZM8 1.8935C10.136 1.8935 10.39 1.90433 11.233 1.9455C12.013 1.9845 12.436 2.12533 12.718 2.2445C13.092 2.40158 13.358 2.589 13.638 2.89233C13.918 3.19566 14.091 3.48491 14.236 3.889C14.346 4.1945 14.476 4.65275 14.512 5.49775C14.55 6.41208 14.559 6.68616 14.559 9.00016C14.559 11.3142 14.549 11.5893 14.511 12.5026C14.476 13.3476 14.345 13.8058 14.235 14.1113C14.09 14.5154 13.917 14.8047 13.637 15.108C13.357 15.4113 13.091 15.5987 12.717 15.7558C12.435 15.875 12.012 16.0158 11.232 16.0548C10.388 16.0982 10.135 16.1057 7.999 16.1057C5.863 16.1057 5.609 16.0949 4.766 16.0537C3.986 16.0147 3.563 15.8739 3.281 15.7547C2.907 15.5977 2.641 15.4102 2.361 15.1069C2.081 14.8036 1.908 14.5143 1.763 14.1102C1.653 13.8047 1.523 13.3465 1.487 12.5015C1.45 11.5893 1.44 11.3142 1.44 9.00016C1.44 6.68616 1.45 6.411 1.488 5.49775C1.523 4.65275 1.654 4.1945 1.764 3.889C1.909 3.48491 2.082 3.19566 2.362 2.89233C2.642 2.589 2.908 2.40158 3.282 2.2445C3.564 2.12533 3.987 1.9845 4.767 1.9455C5.611 1.90216 5.864 1.89458 8 1.89458V1.8935ZM8 4.55091C10.27 4.55091 12.108 6.54425 12.108 9.00125C12.108 11.4604 10.268 13.4516 8 13.4516C5.73 13.4516 3.892 11.4582 3.892 9.00125C3.892 6.54208 5.732 4.55091 8 4.55091ZM8 11.8905C9.473 11.8905 10.667 10.597 10.667 9.00125C10.667 7.4055 9.473 6.112 8 6.112C6.527 6.112 5.333 7.4055 5.333 9.00125C5.333 10.597 6.527 11.8905 8 11.8905ZM13.23 4.37433C13.23 4.9485 12.8 5.41433 12.27 5.41433C11.74 5.41433 11.31 4.9485 11.31 4.37433C11.31 3.80016 11.74 3.33433 12.27 3.33433C12.8 3.33433 13.23 3.80016 13.23 4.37433Z" fill="white"/>
</svg>
