<svg width="22" height="22" viewBox="0 0 22 22" fill="none" xmlns="http://www.w3.org/2000/svg">
<path d="M12.8911 20.1507C12.217 20.3506 11.5846 20.6534 11.0429 21.0339C10.1371 20.3983 8.9858 19.9882 7.83253 19.8974C6.42664 19.7867 5.0461 20.1373 3.81243 20.9141L2.11667 18.0124C3.45122 16.4309 4.14695 14.5423 4.13235 12.531C4.11808 10.5809 3.40339 8.62855 2.11332 7.0001L3.66472 4.40334C4.25403 4.53812 4.85828 4.56078 5.46538 4.47048C5.70003 4.43557 5.86217 4.21703 5.82726 3.98238C5.79235 3.74773 5.57365 3.58543 5.339 3.62051C4.74549 3.70879 4.15568 3.66616 3.58617 3.49395C3.39734 3.43705 3.19408 3.5156 3.09287 3.68496L1.22104 6.81815C1.12688 6.97559 1.14316 7.1755 1.26149 7.31565C3.92422 10.4712 3.92808 14.731 1.27089 17.6746C1.14534 17.8136 1.12436 18.0177 1.21886 18.1794L3.30184 21.7434C3.36294 21.8482 3.46549 21.922 3.58399 21.947C3.70266 21.972 3.82619 21.9458 3.92455 21.8748C6.37931 20.1007 9.19645 20.6476 10.775 21.9062C10.8534 21.9688 10.9483 22.0001 11.0429 22.0001C11.1378 22.0001 11.2324 21.9688 11.3108 21.9062C11.8211 21.4995 12.452 21.1773 13.1353 20.9747C13.3627 20.9072 13.4927 20.668 13.4252 20.4406C13.3577 20.213 13.1184 20.0834 12.8911 20.1507Z" fill="#553280"/>
<path d="M20.8246 7.3156C20.9429 7.17545 20.9591 6.97571 20.8651 6.8181L18.9931 3.68491C18.892 3.51572 18.6888 3.437 18.4999 3.4939C17.3455 3.84285 16.064 3.64613 15.0718 2.9677C14.1697 2.35086 13.6282 1.43761 13.5471 0.396454C13.5297 0.172714 13.3432 0 13.1188 0H8.96742C8.74301 0 8.55637 0.172714 8.53891 0.396454C8.49359 0.98056 8.30426 1.52254 7.97645 2.00728C7.84369 2.20383 7.89522 2.47104 8.09177 2.60397C8.28848 2.73691 8.55553 2.68538 8.68846 2.48866C9.0255 1.99016 9.24605 1.44365 9.34642 0.859375H12.7403C12.9382 1.98848 13.5961 2.99976 14.5866 3.67702C15.6984 4.43736 17.109 4.69971 18.4209 4.40295L19.9726 7.00005C18.6826 8.62849 17.9679 10.5809 17.9536 12.5309C17.939 14.5422 18.6347 16.4308 19.9693 18.0123L18.2735 20.9139C17.7317 20.5723 17.1612 20.3121 16.5722 20.1384C16.3446 20.0714 16.1056 20.2015 16.0386 20.4291C15.9715 20.6567 16.1016 20.8957 16.3292 20.9627C16.9682 21.1512 17.5847 21.458 18.1616 21.875C18.2354 21.9283 18.3235 21.9564 18.4132 21.9564C18.4427 21.9564 18.4724 21.9533 18.5019 21.9471C18.6204 21.9221 18.723 21.8481 18.7841 21.7435L20.8671 18.1795C20.9616 18.0178 20.9404 17.8136 20.815 17.6748C18.158 14.7309 18.1619 10.4711 20.8246 7.3156Z" fill="#553280"/>
<path d="M5.84843 12.3654C5.84155 12.068 5.82124 11.7669 5.78801 11.4703C5.76165 11.2344 5.54866 11.0646 5.31317 11.0911C5.07734 11.1175 4.90765 11.3301 4.934 11.5659C4.96438 11.8375 4.98301 12.1131 4.98922 12.3852C4.9946 12.619 5.18594 12.805 5.41874 12.805C5.4221 12.805 5.42546 12.805 5.42881 12.8048C5.66598 12.7994 5.85397 12.6027 5.84843 12.3654Z" fill="#553280"/>
<path d="M7.04599 5.38078C7.12001 5.5347 7.27358 5.6245 7.43354 5.6245C7.49598 5.6245 7.55943 5.6109 7.61935 5.58203C7.89579 5.44927 8.16435 5.29636 8.41779 5.12734C8.61518 4.99558 8.66856 4.72887 8.5368 4.53148C8.40521 4.33392 8.1385 4.28072 7.94094 4.41231C7.7209 4.55917 7.48742 4.69211 7.24723 4.80742C7.0334 4.91014 6.94326 5.16678 7.04599 5.38078Z" fill="#553280"/>
<path d="M9.29814 18.8302C9.22647 19.0565 9.35168 19.298 9.57794 19.3697C9.83643 19.4516 10.0922 19.5481 10.3381 19.6566C10.3945 19.6814 10.4533 19.6931 10.5112 19.6931C10.6763 19.6931 10.8338 19.5975 10.9046 19.4367C11.0004 19.2195 10.9019 18.9659 10.6847 18.8702C10.4106 18.7493 10.1255 18.6418 9.8376 18.5504C9.61134 18.4788 9.36981 18.6042 9.29814 18.8302Z" fill="#553280"/>
<path d="M4.57012 6.23865C4.70137 6.24183 4.8328 6.24116 4.96305 6.23663C5.20021 6.22824 5.38568 6.02934 5.37746 5.79217C5.36907 5.555 5.17067 5.37054 4.933 5.37776C4.74367 5.38447 4.55048 5.38162 4.36098 5.3692C4.20018 5.35795 4.04694 5.43919 3.96419 5.57766L3.83898 5.7873C3.71729 5.99107 3.78375 6.25493 3.98752 6.37662C4.05651 6.41774 4.13254 6.43738 4.20757 6.43738C4.34973 6.43738 4.48871 6.36671 4.57012 6.23865Z" fill="#553280"/>
<path d="M6.31077 19.0846C6.32974 19.0846 6.34887 19.0834 6.368 19.0808C6.63454 19.0453 6.90646 19.0247 7.17635 19.0192C7.41352 19.0145 7.60201 18.8182 7.59731 18.5809C7.59261 18.3437 7.39607 18.1568 7.15907 18.16C6.85711 18.166 6.55297 18.1893 6.25471 18.2289C6.01939 18.2603 5.85406 18.4763 5.88545 18.7115C5.91415 18.9275 6.09861 19.0846 6.31077 19.0846Z" fill="#553280"/>
<path d="M3.95823 17.6866C3.76269 17.5521 3.49514 17.6015 3.3607 17.797C3.34542 17.8192 3.32998 17.8413 3.31454 17.8635C3.21836 18.0009 3.21098 18.1817 3.29557 18.3266L3.68682 18.9958C3.76672 19.1326 3.91056 19.2088 4.05827 19.2088C4.13178 19.2088 4.20648 19.1898 4.27462 19.15C4.47956 19.0302 4.54855 18.7671 4.42887 18.5622L4.1432 18.0734C4.15428 17.9259 4.08882 17.7765 3.95823 17.6866Z" fill="#553280"/>
<path d="M4.34603 9.1764C4.41199 9.34693 4.57464 9.4515 4.74701 9.4515C4.79854 9.4515 4.85091 9.4421 4.90177 9.42246C5.12316 9.33703 5.23327 9.08828 5.14783 8.86689C5.04125 8.59078 4.92124 8.31484 4.79149 8.04628C4.6881 7.83278 4.43113 7.74332 4.21746 7.84672C4.00396 7.95011 3.91449 8.20708 4.01789 8.42058C4.13756 8.66799 4.24801 8.92228 4.34603 9.1764Z" fill="#553280"/>
<path d="M9.94299 3.34985C10.0902 3.34985 10.2334 3.27416 10.3136 3.1382C10.4203 2.95726 10.5175 2.76978 10.6043 2.5781H11.2304C11.4677 2.5781 11.6601 2.38574 11.6601 2.14841C11.6601 1.91107 11.4677 1.71872 11.2304 1.71872H10.371C10.3626 1.71872 10.3544 1.71906 10.346 1.71939C10.1647 1.70764 9.98932 1.81339 9.91949 1.99147C9.82348 2.23586 9.707 2.47487 9.57322 2.7018C9.45271 2.90624 9.52069 3.16959 9.72512 3.2901C9.79377 3.33055 9.8688 3.34985 9.94299 3.34985Z" fill="#553280"/>
<path d="M4.74056 16.1568C4.78772 16.1734 4.83589 16.1811 4.88322 16.1811C5.06047 16.1811 5.2263 16.0706 5.28857 15.8941C5.3876 15.6126 5.47488 15.3234 5.54807 15.0347C5.60631 14.8046 5.467 14.5709 5.23705 14.5127C5.00693 14.4546 4.77329 14.5938 4.71504 14.8237C4.64824 15.0876 4.56851 15.3516 4.47804 15.6087C4.39916 15.8325 4.51665 16.0779 4.74056 16.1568Z" fill="#553280"/>
<path d="M13.6815 18.2301C13.3845 18.2697 13.0851 18.3261 12.7917 18.398C12.5613 18.4543 12.4201 18.6872 12.4765 18.9176C12.5247 19.1137 12.7002 19.2451 12.8936 19.2451C12.9273 19.2451 12.9617 19.241 12.9961 19.2327C13.2597 19.1682 13.5284 19.1175 13.7948 19.0821C14.0299 19.0507 14.1952 18.8347 14.164 18.5995C14.1326 18.3642 13.9164 18.1989 13.6815 18.2301Z" fill="#553280"/>
<path d="M17.9267 8.18675C18.0786 8.18675 18.2258 8.10601 18.304 7.96334C18.435 7.72416 18.578 7.48615 18.7287 7.25604C18.8588 7.05747 18.8032 6.79127 18.6048 6.66119C18.4063 6.53111 18.1399 6.5865 18.0098 6.78506C17.8468 7.03398 17.6921 7.29145 17.5502 7.55061C17.4363 7.75891 17.5126 8.01991 17.7208 8.13387C17.7862 8.16979 17.8569 8.18675 17.9267 8.18675Z" fill="#553280"/>
<path d="M17.1403 13.5124C17.1165 13.2762 16.9058 13.1037 16.6697 13.128C16.4335 13.1519 16.2615 13.3625 16.2853 13.5987C16.3154 13.8956 16.3593 14.1945 16.4159 14.4871C16.4557 14.6925 16.6356 14.8354 16.8374 14.8354C16.8644 14.8354 16.8919 14.8327 16.9194 14.8273C17.1524 14.7821 17.3048 14.5567 17.2597 14.3238C17.2078 14.0565 17.1679 13.7835 17.1403 13.5124Z" fill="#553280"/>
<path d="M17.0852 9.73056C16.8552 9.67114 16.6211 9.80962 16.5617 10.0394C16.4872 10.3281 16.4246 10.623 16.3754 10.9157C16.3361 11.1497 16.494 11.3713 16.7282 11.4105C16.7522 11.4146 16.7762 11.4166 16.7997 11.4166C17.0058 11.4166 17.1878 11.2679 17.223 11.0579C17.268 10.7895 17.3256 10.5189 17.3939 10.2541C17.4531 10.0241 17.315 9.78981 17.0852 9.73056Z" fill="#553280"/>
<path d="M17.2784 17.0308C17.4107 17.2967 17.5569 17.5607 17.7128 17.8155C17.7939 17.9479 17.9351 18.0209 18.0797 18.0209C18.1563 18.0209 18.2337 18.0006 18.3036 17.9577C18.5061 17.8338 18.5697 17.5693 18.4458 17.3668C18.303 17.1334 18.169 16.8915 18.0478 16.6481C17.9421 16.4356 17.6843 16.349 17.4718 16.4548C17.2595 16.5605 17.1729 16.8183 17.2784 17.0308Z" fill="#553280"/>
<path d="M13.2049 4.7874C13.2843 4.85135 13.3797 4.8824 13.4742 4.8824C13.5997 4.8824 13.7242 4.82768 13.809 4.72227C13.9579 4.53731 13.9287 4.26691 13.7439 4.11803C13.5364 3.95102 13.3409 3.7684 13.163 3.57538C13.002 3.40098 12.7301 3.38991 12.5557 3.55087C12.3813 3.71167 12.3702 3.98358 12.5312 4.15797C12.738 4.38222 12.9646 4.59387 13.2049 4.7874Z" fill="#553280"/>
<path d="M16.6045 6.19498C16.8185 6.19498 17.0038 6.03502 17.0305 5.81732C17.0592 5.58167 16.8915 5.36733 16.6559 5.33863C16.3922 5.30657 16.128 5.25571 15.8705 5.18756C15.6412 5.12664 15.4059 5.26377 15.3452 5.49305C15.2846 5.72249 15.4214 5.95764 15.6508 6.01841C15.9461 6.09645 16.2492 6.15486 16.5518 6.19179C16.5696 6.1938 16.5871 6.19498 16.6045 6.19498Z" fill="#553280"/>
<path d="M17.0005 19.3721C17.0445 19.3864 17.0891 19.3931 17.1329 19.3931C17.3142 19.3931 17.4827 19.2774 17.5416 19.0956C17.6148 18.8699 17.4911 18.6277 17.2654 18.5545C16.9778 18.4614 16.6829 18.3835 16.3889 18.323C16.1564 18.2754 15.9293 18.4253 15.8816 18.6577C15.8338 18.8902 15.9837 19.1173 16.2162 19.165C16.4792 19.2188 16.743 19.2885 17.0005 19.3721Z" fill="#553280"/>
<path d="M7.05722 3.88091C7.13913 3.88091 7.22188 3.85757 7.29523 3.80873L7.2954 3.80856C7.49295 3.67697 7.54616 3.41026 7.41457 3.21288C7.28281 3.01532 7.01593 2.96211 6.81854 3.0937C6.62116 3.2253 6.56778 3.49217 6.69937 3.68956C6.78212 3.81377 6.91841 3.88091 7.05722 3.88091Z" fill="#553280"/>
<path d="M14.7319 19.8774H14.7318C14.4944 19.8774 14.3022 20.0698 14.3022 20.3071C14.3022 20.5443 14.4948 20.7368 14.7319 20.7368C14.9693 20.7368 15.1616 20.5443 15.1616 20.3071C15.1616 20.0698 14.9693 19.8774 14.7319 19.8774Z" fill="#553280"/>
</svg>
