<svg width="17" height="15" viewBox="0 0 17 15" fill="none" xmlns="http://www.w3.org/2000/svg">
<path d="M4.98531 11.308C5.25941 11.0289 5.25578 10.5806 4.97718 10.306C2.68098 8.04923 1.41667 6.0465 1.41667 4.66667C1.41667 2.90932 2.84648 1.47917 4.60417 1.47917C6.36186 1.47917 7.79167 2.90932 7.79167 4.66667C7.79167 5.05767 8.109 5.375 8.5 5.375C8.891 5.375 9.20833 5.05767 9.20833 4.66667C9.20833 2.90932 10.6381 1.47917 12.3958 1.47917C14.1535 1.47917 15.5833 2.90932 15.5833 4.66667C15.5833 7.43169 10.8106 11.6051 8.50242 13.3469C8.17212 13.0951 7.66664 12.6996 7.07521 12.2029C6.77551 11.9515 6.329 11.9902 6.07756 12.2897C5.82576 12.5894 5.86467 13.0359 6.16419 13.2874C7.2554 14.2041 8.05297 14.78 8.08634 14.804C8.20999 14.8932 8.35474 14.9375 8.5 14.9375C8.64492 14.9375 8.79001 14.8932 8.91366 14.8043C9.74131 14.2086 17 8.86461 17 4.66667C17 2.12801 14.9345 0.0625 12.3958 0.0625C10.7575 0.0625 9.31642 0.922841 8.5 2.21517C7.68358 0.922841 6.24253 0.0625 4.60417 0.0625C2.06551 0.0625 0 2.12801 0 4.66667C0 6.48039 1.34023 8.71762 3.98368 11.3165C4.26245 11.5906 4.71156 11.5868 4.98531 11.308Z" fill="#553280"/>
</svg>
