<svg width="14" height="14" viewBox="0 0 14 14" fill="none" xmlns="http://www.w3.org/2000/svg">
<path d="M6.99993 0C4.20417 0 1.92966 2.27451 1.92966 5.07024C1.92966 8.53983 6.46705 13.6334 6.66024 13.8485C6.84169 14.0506 7.15849 14.0503 7.33962 13.8485C7.5328 13.6334 12.0702 8.53983 12.0702 5.07024C12.0701 2.27451 9.79566 0 6.99993 0ZM6.99993 12.8442C5.47286 11.0302 2.84272 7.4515 2.84272 5.0703C2.84272 2.77796 4.70762 0.913062 6.99993 0.913062C9.29224 0.913062 11.1571 2.77796 11.1571 5.07027C11.1571 7.45158 8.52738 11.0296 6.99993 12.8442Z" fill="#553280"/>
<path d="M6.99999 2.51929C5.59337 2.51929 4.44904 3.66365 4.44904 5.07027C4.44904 6.47688 5.5934 7.62125 6.99999 7.62125C8.40657 7.62125 9.55091 6.47688 9.55091 5.07027C9.55091 3.66365 8.40657 2.51929 6.99999 2.51929ZM6.99999 6.70818C6.09682 6.70818 5.3621 5.97343 5.3621 5.07027C5.3621 4.1671 6.09685 3.43235 6.99999 3.43235C7.90312 3.43235 8.63787 4.1671 8.63787 5.07027C8.63787 5.97343 7.90312 6.70818 6.99999 6.70818Z" fill="#553280"/>
</svg>
