<svg width="21" height="21" viewBox="0 0 21 21" fill="none" xmlns="http://www.w3.org/2000/svg">
<g clip-path="url(#clip0_0:93)">
<path d="M10.5 21C10.2735 21 10.0898 20.8164 10.0898 20.5898C10.0898 20.3633 10.2735 20.1797 10.5 20.1797C10.7265 20.1797 10.9102 20.3633 10.9102 20.5898C10.9102 20.8164 10.7265 21 10.5 21Z" fill="#553280"/>
<path d="M4.34766 6.15234C4.57414 6.15234 4.75781 6.33601 4.75781 6.5625V20.1797H8.6543C8.88078 20.1797 9.06445 20.3634 9.06445 20.5898C9.06445 20.8163 8.88078 21 8.6543 21H4.34766C4.12117 21 3.9375 20.8163 3.9375 20.5898V10.6641H1.47656C1.25007 10.6641 1.06641 10.4804 1.06641 10.2539V5.75326C1.06641 3.86757 2.34392 2.23137 4.17309 1.77429L6.21858 1.26283L7.79297 0.0820312C7.8611 0.0309668 7.94907 0 8.03906 0H12.9609C13.046 0 13.1349 0.0279316 13.207 0.0820312L14.7814 1.26283L16.8269 1.77425C18.656 2.23133 19.9336 3.86753 19.9336 5.75326V10.2539C19.9336 10.4804 19.75 10.6641 19.5234 10.6641H17.0625V20.5898C17.0625 20.8163 16.8789 21 16.6523 21H12.3457C12.1192 21 11.9355 20.8163 11.9355 20.5898C11.9355 20.3634 12.1192 20.1797 12.3457 20.1797H16.2422V6.5625C16.2422 6.33601 16.4258 6.15234 16.6523 6.15234C16.8789 6.15234 17.0625 6.33601 17.0625 6.5625V9.84375H19.1133V5.75326C19.1133 4.24475 18.0913 2.93578 16.6279 2.57012L14.8705 2.13068L13.7602 5.46172C13.6804 5.70117 13.4046 5.81265 13.1809 5.69543L11.2754 4.69834L10.9102 5.42883V7.79297C10.9102 8.01946 10.7265 8.20312 10.5 8.20312C10.2735 8.20312 10.0898 8.01946 10.0898 7.79297V5.42883L9.7246 4.69834L7.81905 5.69543C7.59683 5.81179 7.32018 5.70273 7.23979 5.46172L6.12946 2.13068L4.37202 2.57012C2.9087 2.93573 1.88672 4.24471 1.88672 5.75326V9.84375H3.9375V6.5625C3.9375 6.33601 4.12117 6.15234 4.34766 6.15234ZM10.5 4.41513L12.2973 0.820312H8.70269L10.5 4.41513ZM13.1344 4.74522L14.119 1.79136L13.108 1.03314L11.6423 3.96453L13.1344 4.74522ZM7.86565 4.74522L9.35767 3.96453L7.89198 1.03314L6.88099 1.7914L7.86565 4.74522Z" fill="#553280"/>
</g>
<defs>
<clipPath id="clip0_0:93">
<rect width="21" height="21" fill="white" transform="matrix(-1 0 0 1 21 0)"/>
</clipPath>
</defs>
</svg>
