<svg width="17" height="17" viewBox="0 0 17 17" fill="none" xmlns="http://www.w3.org/2000/svg">
<path d="M0.0532322 10.3778L3.04316 4.44216C3.09994 4.32947 3.19908 4.24072 3.32001 4.19739L7.00611 2.85575C6.95633 1.42305 8.77938 0.735677 9.67878 1.88297C9.68433 1.88095 13.3638 0.541738 13.36 0.543166C13.5957 0.457635 13.8611 0.561959 13.9746 0.787341L16.9467 6.68921C16.9855 6.76634 17.0021 6.85678 16.9997 6.92907C16.9911 8.84508 15.4299 10.4012 13.5119 10.4012C11.5934 10.4012 10.0318 8.84415 10.0241 6.92737C10.0219 6.85293 10.0397 6.76282 10.0782 6.68705L12.5118 1.91183L9.99514 2.82783C9.9889 3.2182 9.83437 3.58433 9.55762 3.86104C9.3944 4.02427 9.20248 4.14174 8.99799 4.21359V13.4222H9.08637C10.5014 13.4222 11.6526 14.5734 11.6526 15.9884C11.6526 16.2635 11.4296 16.4865 11.1546 16.4865H5.84539C5.57034 16.4865 5.34735 16.2635 5.34735 15.9884C5.34735 14.5734 6.49853 13.4222 7.91358 13.4222H8.00196V4.21362C7.76048 4.12876 7.54462 3.98386 7.37038 3.78321L4.18478 4.94266L6.92107 10.3779C6.96002 10.4553 6.97642 10.5456 6.97406 10.6178C6.9654 12.5333 5.40459 14.089 3.48712 14.089C1.56958 14.089 0.0087738 12.5332 0.000173569 10.6177C-0.00258255 10.5357 0.0178375 10.448 0.0532322 10.3778ZM13.5271 2.1134L11.3348 6.41515H15.6934L13.5271 2.1134ZM13.5119 9.40508C14.7155 9.40508 15.7225 8.54748 15.9538 7.41124H11.0701C11.3014 8.54748 12.3084 9.40508 13.5119 9.40508ZM7.91354 14.4183C7.22179 14.4183 6.63307 14.868 6.42436 15.4904H10.5755C10.3668 14.868 9.77809 14.4183 9.08634 14.4183H7.91354ZM8.85329 3.15671C9.04812 2.96187 9.04812 2.64485 8.85329 2.45001C8.54048 2.13721 8.00024 2.3594 8.00024 2.80336C8.00024 3.24748 8.54062 3.46938 8.85329 3.15671ZM3.48782 5.77353L1.30658 10.1038H5.66789L3.48782 5.77353ZM3.48712 13.0929C4.69016 13.0929 5.69678 12.2357 5.92817 11.0999H1.0461C1.27746 12.2356 2.28407 13.0929 3.48712 13.0929Z" fill="#553280"/>
</svg>
