<svg width="17" height="17" viewBox="0 0 17 17" fill="none" xmlns="http://www.w3.org/2000/svg">
<path d="M15.8292 15.0044L12.1684 11.3438C13.0784 10.2496 13.6266 8.84447 13.6266 7.31347C13.6266 3.83221 10.7944 1 7.31332 1C3.83213 1 1 3.83221 1 7.31347C1 10.7945 3.83213 13.6265 7.31332 13.6265C8.84423 13.6265 10.2494 13.0784 11.3436 12.1684L15.0044 15.8292C15.1183 15.9431 15.2676 16 15.4168 16C15.566 16 15.7153 15.9431 15.8292 15.8292C16.057 15.6014 16.057 15.2322 15.8292 15.0044ZM2.16638 7.31347C2.16638 4.47535 4.47528 2.16638 7.31332 2.16638C10.1513 2.16638 12.4601 4.47535 12.4601 7.31347C12.4601 10.1514 10.1513 12.4601 7.31332 12.4601C4.47528 12.4601 2.16638 10.1514 2.16638 7.31347Z" fill="#553280" stroke="#553280" stroke-width="0.2"/>
</svg>
