<svg width="23" height="23" viewBox="0 0 23 23" fill="none" xmlns="http://www.w3.org/2000/svg">
<path d="M22.3247 4.269L18.731 0.675252C18.3238 0.26808 17.6137 0.26808 17.2065 0.675252C17.0031 0.878658 16.8906 1.14963 16.8906 1.43749C16.8906 1.68941 16.9812 1.92588 17.1393 2.11814L15.9796 3.27785C15.6404 3.6171 15.4531 4.06847 15.4531 4.5486V5.60121L9.34375 11.7106L8.3932 10.76C8.1783 10.5451 7.88073 10.4219 7.5767 10.4219C7.21805 10.4219 6.88562 10.5843 6.66497 10.8675L2.4362 16.3045C2.024 16.8345 1.79688 17.4965 1.79688 18.1682C1.79688 18.6598 1.92194 19.1374 2.14727 19.569C1.97872 19.8544 1.86264 20.1739 1.81772 20.5167C0.988281 20.6748 0.359375 21.4058 0.359375 22.2812V22.6406H12.5781C13.3709 22.6406 14.0156 21.9959 14.0156 21.2031C14.0156 20.493 13.4988 19.9022 12.8214 19.7865C12.5267 18.9268 11.7095 18.3281 10.7812 18.3281C10.5042 18.3281 10.2343 18.3824 9.97481 18.4905C9.88569 18.3975 9.78937 18.3137 9.68983 18.2347L12.1325 16.335C12.4157 16.1144 12.5781 15.7819 12.5781 15.4233C12.5781 15.1193 12.4549 14.8217 12.24 14.6068L11.2898 13.6562L17.3991 7.54686H18.4517C18.9319 7.54686 19.3833 7.35963 19.7225 7.02038L20.8822 5.86067C21.0741 6.0188 21.3106 6.10936 21.5625 6.10936C21.8504 6.10936 22.1213 5.99688 22.3247 5.79347C22.5281 5.59007 22.6406 5.3191 22.6406 5.03124C22.6406 4.74338 22.5285 4.47241 22.3247 4.269ZM16.5747 5.49591C16.6419 5.42871 16.7343 5.39061 16.8288 5.39061C17.259 5.39061 17.6094 5.741 17.6094 6.17118C17.6094 6.26569 17.5713 6.35841 17.5041 6.42525L10.5681 13.3608L9.41455 13.9376L9.06236 13.5854L9.63916 12.4318L16.5747 5.49591ZM10.0657 19.2463C10.2943 19.1141 10.5347 19.0469 10.7812 19.0469C11.463 19.0469 12.0556 19.5317 12.19 20.1994L12.2497 20.4966L12.553 20.488C12.572 20.4872 12.5903 20.4854 12.5781 20.4844C12.9745 20.4844 13.2969 20.8067 13.2969 21.2031C13.2969 21.5995 12.9745 21.9219 12.5781 21.9219H1.13958C1.288 21.5035 1.68763 21.2031 2.15625 21.2031H2.51562V20.8437C2.51562 19.8529 3.3217 19.0469 4.3125 19.0469C4.69739 19.0469 5.06791 19.178 5.37697 19.4077C4.39264 19.4152 3.59375 20.217 3.59375 21.2031H4.3125C4.3125 20.6087 4.79622 20.125 5.39062 20.125C5.98503 20.125 6.46875 20.6087 6.46875 21.2031H7.1875C7.1875 20.4193 6.68006 19.7584 5.97892 19.5133L6.04253 19.4041C6.4285 18.7403 7.14258 18.3281 7.90625 18.3281C8.57181 18.3281 9.18994 18.6303 9.60286 19.1572L9.79548 19.403L10.0657 19.2463ZM11.8594 15.4233C11.8594 15.5588 11.7979 15.6845 11.6908 15.7679L9.02966 17.8372C8.67998 17.6884 8.29941 17.6094 7.90625 17.6094C7.02111 17.6094 6.18628 18.0237 5.64542 18.7123C5.24759 18.4625 4.7858 18.3281 4.3125 18.3281C3.67928 18.3281 3.10033 18.5639 2.65758 18.9513C2.56737 18.7011 2.51562 18.4377 2.51562 18.1682C2.51562 17.6554 2.68884 17.1504 3.0033 16.7461L7.23206 11.3092C7.38623 11.1111 7.70823 11.0917 7.88505 11.2685L8.90639 12.2899L8.18764 13.7274L8.47622 14.0156L7.2928 15.199L7.80095 15.7072L8.98438 14.5238L9.27295 14.8123L10.7105 14.0936L11.7318 15.1149C11.8127 15.1958 11.8594 15.3086 11.8594 15.4233ZM19.214 6.51222C19.0099 6.71599 18.7396 6.82811 18.4514 6.82811H18.0988C18.2447 6.64016 18.3281 6.41303 18.3281 6.17118C18.3281 5.34425 17.6557 4.67186 16.8288 4.67186C16.587 4.67186 16.3598 4.75524 16.1719 4.90114V4.5486C16.1719 4.26038 16.2844 3.98977 16.4878 3.786L17.6403 2.63349L20.3665 5.35971L19.214 6.51222ZM21.8166 5.28531C21.6789 5.42296 21.4461 5.42296 21.3084 5.28531L17.7147 1.69156C17.646 1.62292 17.6094 1.53488 17.6094 1.43749C17.6094 1.3401 17.646 1.25205 17.7147 1.18341C17.7833 1.11477 17.8714 1.07811 17.9688 1.07811C18.0661 1.07811 18.1542 1.11477 18.2228 1.18341L21.8166 4.77716C21.8852 4.8458 21.9219 4.93385 21.9219 5.03124C21.9219 5.12863 21.8852 5.21667 21.8166 5.28531Z" fill="#553280"/>
</svg>
