<svg width="19" height="21" viewBox="0 0 19 21" fill="none" xmlns="http://www.w3.org/2000/svg">
<path d="M9.42393 11.3154C9.44567 11.3154 9.46741 11.3154 9.49351 11.3154C9.5022 11.3154 9.5109 11.3154 9.5196 11.3154C9.53264 11.3154 9.55004 11.3154 9.56309 11.3154C10.8373 11.2936 11.8679 10.8457 12.6289 9.98903C14.3032 8.10168 14.0249 4.86623 13.9944 4.55747C13.8857 2.23959 12.7898 1.13067 11.8853 0.61317C11.2113 0.226134 10.4241 0.0173949 9.54569 0H9.51525C9.5109 0 9.5022 0 9.49786 0H9.47176C8.98905 0 8.04103 0.0782771 7.13215 0.595776C6.21892 1.11327 5.10564 2.2222 4.99692 4.55747C4.96648 4.86623 4.68816 8.10168 6.36242 9.98903C7.1191 10.8457 8.14975 11.2936 9.42393 11.3154ZM6.15803 4.66618C6.15803 4.65314 6.16238 4.64009 6.16238 4.63139C6.30589 1.51336 8.51939 1.1785 9.46741 1.1785H9.48481C9.49351 1.1785 9.50655 1.1785 9.5196 1.1785C10.6938 1.2046 12.6898 1.68296 12.8246 4.63139C12.8246 4.64444 12.8246 4.65749 12.829 4.66618C12.8333 4.69662 13.1377 7.65376 11.7548 9.2106C11.2069 9.82812 10.4763 10.1325 9.51525 10.1412C9.50655 10.1412 9.5022 10.1412 9.49351 10.1412C9.48481 10.1412 9.48046 10.1412 9.47176 10.1412C8.51504 10.1325 7.78011 9.82812 7.23652 9.2106C5.85797 7.66246 6.15368 4.69228 6.15803 4.66618Z" fill="#333333"/>
<path d="M18.4302 16.6818C18.4302 16.6775 18.4302 16.6731 18.4302 16.6688C18.4302 16.634 18.4258 16.5992 18.4258 16.5601C18.3997 15.699 18.3432 13.6856 16.4558 13.0419C16.4428 13.0376 16.4254 13.0332 16.4124 13.0289C14.4511 12.5288 12.8203 11.3981 12.8029 11.3851C12.5376 11.1981 12.1723 11.2633 11.9853 11.5286C11.7984 11.7939 11.8636 12.1591 12.1289 12.3461C12.2028 12.3983 13.9336 13.6029 16.0992 14.1596C17.1125 14.5205 17.2256 15.6033 17.256 16.5949C17.256 16.634 17.256 16.6688 17.2604 16.7036C17.2647 17.095 17.2386 17.6994 17.169 18.0473C16.4645 18.4474 13.7031 19.8303 9.50222 19.8303C5.31875 19.8303 2.53991 18.4431 1.83107 18.043C1.76149 17.6951 1.73105 17.0906 1.73975 16.6992C1.73975 16.6644 1.7441 16.6296 1.7441 16.5905C1.77454 15.599 1.8876 14.5162 2.90086 14.1552C5.06652 13.5986 6.79732 12.3896 6.87124 12.3418C7.13652 12.1548 7.20175 11.7895 7.01475 11.5242C6.82776 11.259 6.46246 11.1937 6.19719 11.3807C6.1798 11.3938 4.55772 12.5244 2.58775 13.0245C2.57035 13.0289 2.55731 13.0332 2.54426 13.0376C0.656914 13.6856 0.600381 15.699 0.574288 16.5557C0.574288 16.5949 0.574288 16.6296 0.56994 16.6644C0.56994 16.6688 0.56994 16.6731 0.56994 16.6775C0.565591 16.9036 0.561242 18.0647 0.791725 18.6475C0.835212 18.7605 0.913489 18.8562 1.01786 18.9214C1.14832 19.0084 4.27505 21.0001 9.50657 21.0001C14.7381 21.0001 17.8648 19.004 17.9953 18.9214C18.0953 18.8562 18.1779 18.7605 18.2214 18.6475C18.4389 18.0691 18.4345 16.908 18.4302 16.6818Z" fill="#333333"/>
</svg>
