<svg width="18" height="12" viewBox="0 0 18 12" fill="none" xmlns="http://www.w3.org/2000/svg">
<path fill-rule="evenodd" clip-rule="evenodd" d="M16.952 1.31691C17.069 0.893871 16.952 0.583496 16.395 0.583496H14.553C14.0845 0.583496 13.8685 0.851621 13.7515 1.14791C13.7515 1.14791 12.8145 3.62116 11.4875 5.22829C11.058 5.69304 10.863 5.84145 10.629 5.84145C10.512 5.84145 10.3425 5.69304 10.3425 5.27054V1.31691C10.3425 0.809371 10.2065 0.583496 9.816 0.583496H6.921C6.6285 0.583496 6.4525 0.818579 6.4525 1.04175C6.4525 1.52275 7.116 1.63379 7.1845 2.98687V5.92595C7.1845 6.57 7.077 6.687 6.843 6.687C6.2185 6.687 4.6995 4.20237 3.7985 1.35916C3.6215 0.806663 3.4445 0.583496 2.974 0.583496H1.1315C0.6055 0.583496 0.5 0.851621 0.5 1.14791C0.5 1.67604 1.125 4.2977 3.408 7.76491C4.9305 10.1331 7.075 11.4168 9.0265 11.4168C10.1975 11.4168 10.3425 11.1314 10.3425 10.6401V8.85095C10.3425 8.28058 10.453 8.16683 10.824 8.16683C11.0975 8.16683 11.5655 8.3147 12.6585 9.45654C13.9075 10.8096 14.1135 11.4168 14.816 11.4168H16.658C17.1845 11.4168 17.4475 11.1314 17.2955 10.5691C17.1295 10.008 16.5335 9.19437 15.742 8.2302C15.3125 7.68041 14.6685 7.08837 14.4735 6.79262C14.2005 6.41183 14.2785 6.24283 14.4735 5.90483C14.4735 5.90483 16.718 2.47933 16.952 1.31691Z" fill="white"/>
</svg>
